<mxfile host="app.diagrams.net" modified="2024-05-17T12:39:55.438Z" agent="Mozilla/5.0 (Windows NT 10.0; Win64; x64) AppleWebKit/537.36 (KHTML, like Gecko) Chrome/124.0.0.0 Safari/537.36 Edg/124.0.0.0" etag="4CQMvDdT5vLXX4gahUb9" version="24.4.4" type="github">
  <diagram name="Page-1" id="_-u6tLEGy8uaao9mGl70">
    <mxGraphModel dx="746" dy="1571" grid="1" gridSize="10" guides="1" tooltips="1" connect="1" arrows="1" fold="1" page="1" pageScale="1" pageWidth="850" pageHeight="1100" math="0" shadow="0">
      <root>
        <mxCell id="0" />
        <mxCell id="1" parent="0" />
        <mxCell id="zl1cXov49M7ZYqsMafAr-94" value="" style="endArrow=none;html=1;rounded=0;exitX=0.7;exitY=0;exitDx=0;exitDy=0;exitPerimeter=0;" edge="1" parent="1">
          <mxGeometry relative="1" as="geometry">
            <mxPoint x="146" y="-50" as="sourcePoint" />
            <mxPoint x="146" y="70" as="targetPoint" />
          </mxGeometry>
        </mxCell>
        <mxCell id="zl1cXov49M7ZYqsMafAr-95" value="1" style="resizable=0;html=1;whiteSpace=wrap;align=right;verticalAlign=bottom;" connectable="0" vertex="1" parent="zl1cXov49M7ZYqsMafAr-94">
          <mxGeometry x="1" relative="1" as="geometry" />
        </mxCell>
      </root>
    </mxGraphModel>
  </diagram>
</mxfile>
